<svg width="1000" height="1000" viewBox="0 0 1000 1000" fill="none" xmlns="http://www.w3.org/2000/svg">
<g opacity="0.9" clip-path="url(#clip0_7_2)">
<circle cx="500" cy="500" r="500" fill="#FAF4ED"/>
<path d="M364.2 232.6C354.2 232.6 345.4 229.2 337.8 222.4C330.6 215.6 327 206.8 327 196C327 185.2 330.6 176 337.8 168.4C345 160.8 353.8 157 364.2 157C375.4 157 384.6 160.8 391.8 168.4C399 176 402.6 185 402.6 195.4C402.6 205.8 398.8 214.6 391.2 221.8C383.6 229 374.6 232.6 364.2 232.6ZM295.2 456.4C299.2 440.8 302.2 428 304.2 418C306.6 408 307.8 400.2 307.8 394.6C307.8 386.6 304.8 382.6 298.8 382.6C294.4 382.6 289.6 384.8 284.4 389.2C279.2 393.2 274 398 268.8 403.6C264 409.2 259.6 414.8 255.6 420.4C251.6 426 248.8 430.4 247.2 433.6L229.8 422.8C234.6 414 241.2 404.2 249.6 393.4C258.4 382.6 268.2 372.6 279 363.4C289.8 354.2 301 346.6 312.6 340.6C324.2 334.2 335.2 331 345.6 331C365.6 331 375.6 342.2 375.6 364.6C375.6 377.8 372.8 395.2 367.2 416.8C362 438.4 355.2 464.4 346.8 494.8L297 675.4C292.2 692.6 285.2 709.2 276 725.2C267.2 741.6 256.8 756 244.8 768.4C233.2 781.2 220.6 791.4 207 799C193.4 807 179.4 811 165 811C148.2 811 134.4 806.6 123.6 797.8C112.8 789 107.4 778.2 107.4 765.4C107.4 754.6 110 746 115.2 739.6C120.4 733.2 127.6 730 136.8 730C145.2 730 151.4 732.2 155.4 736.6C159.4 741.4 162.8 746.6 165.6 752.2C168 758.2 170.6 763.4 173.4 767.8C176.2 772.6 180.4 775 186 775C195.6 775 204.2 770.2 211.8 760.6C219 751 224.6 738.4 228.6 722.8L295.2 456.4Z" fill="#575279"/>
<path d="M645.497 596.8C627.497 617.6 608.697 633.6 589.097 644.8C569.497 655.6 549.897 661 530.297 661C508.297 661 491.097 654 478.697 640C466.297 625.6 460.097 605.6 460.097 580C460.097 530 485.897 470.2 537.497 400.6L536.297 398.8C525.497 398.8 516.497 397.2 509.297 394C502.097 390.8 495.897 387.2 490.697 383.2C485.897 379.2 481.497 375.6 477.497 372.4C473.897 369.2 469.897 367.6 465.497 367.6C459.097 367.6 455.897 371 455.897 377.8C455.897 381.4 456.897 384.6 458.897 387.4C461.297 390.2 463.697 393 466.097 395.8C468.897 398.6 471.297 401.8 473.297 405.4C475.697 408.6 476.897 412.6 476.897 417.4C476.897 424.6 474.097 430.6 468.497 435.4C462.897 439.8 455.697 442 446.897 442C436.497 442 428.497 438.8 422.897 432.4C417.297 426 414.497 417 414.497 405.4C414.497 395.8 416.497 386.6 420.497 377.8C424.497 368.6 429.897 360.6 436.697 353.8C443.497 346.6 451.297 341 460.097 337C469.297 333 478.697 331 488.297 331C496.697 331 503.697 332.4 509.297 335.2C514.897 337.6 520.097 340.6 524.897 344.2C529.697 347.4 534.297 350.4 538.697 353.2C543.497 355.6 548.897 356.8 554.897 356.8C558.097 356.8 560.897 356.2 563.297 355C566.097 353.8 569.297 351.4 572.897 347.8C577.297 343.4 581.697 339.6 586.097 336.4C590.497 332.8 595.497 331 601.097 331C609.497 331 613.697 335 613.697 343C613.697 344.2 613.497 345.6 613.097 347.2C612.697 348.4 611.497 350.2 609.497 352.6C607.897 355 605.497 358.2 602.297 362.2C599.097 365.8 594.697 370.8 589.097 377.2C577.497 390.8 567.097 405.2 557.897 420.4C549.097 435.6 541.697 451 535.697 466.6C529.697 481.8 525.097 497 521.897 512.2C518.697 527 517.097 541 517.097 554.2C517.097 573.8 520.297 589.2 526.697 600.4C533.097 611.2 542.097 616.6 553.697 616.6C564.497 616.6 577.097 611.4 591.497 601C605.897 590.2 621.297 575.2 637.697 556C636.897 547.6 636.097 539 635.297 530.2C634.897 521.4 634.697 513.4 634.697 506.2C634.697 484.6 637.097 463.4 641.897 442.6C647.097 421.4 653.697 402.6 661.697 386.2C669.697 369.4 678.897 356 689.297 346C699.697 336 710.297 331 721.097 331C729.897 331 737.697 334.8 744.497 342.4C751.697 350 755.297 362.8 755.297 380.8C755.297 402.4 749.497 427.4 737.897 455.8C726.297 484.2 709.497 514 687.497 545.2C691.097 564.4 697.697 580 707.297 592C717.297 604 728.097 610 739.697 610C750.897 610 762.297 604.8 773.897 594.4C785.497 584 796.097 570.8 805.697 554.8C815.297 538.4 823.097 520.4 829.097 500.8C835.497 480.8 838.697 461.4 838.697 442.6C838.697 433.4 837.897 425.4 836.297 418.6C835.097 411.8 833.497 405.6 831.497 400C829.897 394 828.297 388.4 826.697 383.2C825.497 377.6 824.897 371.6 824.897 365.2C824.897 342.4 835.297 331 856.097 331C868.497 331 877.297 335.6 882.497 344.8C888.097 354 890.897 369.4 890.897 391C890.897 423 885.697 455.2 875.297 487.6C864.897 519.6 851.297 548.6 834.497 574.6C818.097 600.2 799.497 621 778.697 637C757.897 653 737.097 661 716.297 661C699.497 661 685.097 655.6 673.097 644.8C661.097 634 651.897 618 645.497 596.8ZM679.097 506.8C689.497 489.6 697.897 472.4 704.297 455.2C711.097 438 714.497 420.6 714.497 403C714.497 387.8 711.497 380.2 705.497 380.2C701.497 380.2 697.697 382.8 694.097 388C690.497 393.2 687.297 400.2 684.497 409C682.097 417.8 680.097 428.2 678.497 440.2C676.897 451.8 676.097 464.2 676.097 477.4C676.097 483 676.297 488.2 676.697 493C677.097 497.8 677.897 502.4 679.097 506.8Z" fill="#286983"/>
</g>
<defs>
<clipPath id="clip0_7_2">
<rect width="1000" height="1000" fill="white"/>
</clipPath>
</defs>
</svg>
